HIERARCHY
ROOT Hips
{
	OFFSET 0.000000 0.000000 0.000000
	CHANNELS 6 Xposition Yposition Zposition Zrotation Yrotation Xrotation 
	JOINT LHipJoint
	{
		OFFSET 0.000000 0.000000 0.000000
		CHANNELS 3 Zrotation Yrotation Xrotation
		JOINT LeftUpLeg
		{
			OFFSET 1.363060 -1.794630 0.839290
			CHANNELS 3 Zrotation Yrotation Xrotation
			JOINT LeftLeg
			{
				OFFSET 2.448110 -6.726130 0.000000
				CHANNELS 3 Zrotation Yrotation Xrotation
				JOINT LeftFoot
				{
					OFFSET 2.562200 -7.039590 0.000000
					CHANNELS 3 Zrotation Yrotation Xrotation
					JOINT LeftToeBase
					{
						OFFSET 0.157640 -0.433110 2.322550
						CHANNELS 3 Zrotation Yrotation Xrotation
						End Site
						{
							OFFSET 0.000000 0.000000 0.000000
						}
					}
				}
			}
		}
	}
	JOINT RHipJoint
	{
		OFFSET 0.000000 0.000000 0.000000
		CHANNELS 3 Zrotation Yrotation Xrotation
		JOINT RightUpLeg
		{
			OFFSET -1.305520 -1.794630 0.839290
			CHANNELS 3 Zrotation Yrotation Xrotation
			JOINT RightLeg
			{
				OFFSET -2.542530 -6.985550 0.000000
				CHANNELS 3 Zrotation Yrotation Xrotation
				JOINT RightFoot
				{
					OFFSET -2.568260 -7.056230 0.000000
					CHANNELS 3 Zrotation Yrotation Xrotation
					JOINT RightToeBase
					{
						OFFSET -0.164730 -0.452590 2.363150
						CHANNELS 3 Zrotation Yrotation Xrotation
						End Site
						{
							OFFSET 0.000000 0.000000 0.000000
						}
					}
				}
			}
		}
	}
	JOINT LowerBack
	{
		OFFSET 0.000000 0.000000 0.000000
		CHANNELS 3 Zrotation Yrotation Xrotation
		JOINT Spine
		{
			OFFSET 0.028270 2.035590 -0.193380
			CHANNELS 3 Zrotation Yrotation Xrotation
			JOINT Spine1
			{
				OFFSET 0.056720 2.048850 -0.042750
				CHANNELS 3 Zrotation Yrotation Xrotation
				JOINT Neck
				{
					OFFSET 0.000000 0.000000 0.000000
					CHANNELS 3 Zrotation Yrotation Xrotation
					JOINT Neck1
					{
						OFFSET -0.054170 1.746240 0.172020
						CHANNELS 3 Zrotation Yrotation Xrotation
						JOINT Head
						{
							OFFSET 0.104070 1.761360 -0.123970
							CHANNELS 3 Zrotation Yrotation Xrotation
							End Site
							{
								OFFSET 0.000000 0.000000 0.000000
							}
						}
					}
				}
				JOINT LeftShoulder
				{
					OFFSET 0.000000 0.000000 0.000000
					CHANNELS 3 Zrotation Yrotation Xrotation
					JOINT LeftArm
					{
						OFFSET 3.362410 1.200890 -0.311210
						CHANNELS 3 Zrotation Yrotation Xrotation
						JOINT LeftForeArm
						{
							OFFSET 4.983000 -0.000000 -0.000000
							CHANNELS 3 Zrotation Yrotation Xrotation
							JOINT LeftHand
							{
								OFFSET 3.483560 -0.000000 -0.000000
								CHANNELS 3 Zrotation Yrotation Xrotation
								JOINT LeftFingerBase
								{
									OFFSET 0.000000 0.000000 0.000000
									CHANNELS 3 Zrotation Yrotation Xrotation
									JOINT LeftHandIndex1
									{
										OFFSET 0.715260 -0.000000 -0.000000
										CHANNELS 3 Zrotation Yrotation Xrotation
										End Site
										{
											OFFSET 0.000000 0.000000 0.000000
										}
									}
								}
								JOINT LThumb
								{
									OFFSET 0.000000 0.000000 0.000000
									CHANNELS 3 Zrotation Yrotation Xrotation
									End Site
									{
										OFFSET 0.000000 0.000000 0.000000
									}
								}
							}
						}
					}
				}
				JOINT RightShoulder
				{
					OFFSET 0.000000 0.000000 0.000000
					CHANNELS 3 Zrotation Yrotation Xrotation
					JOINT RightArm
					{
						OFFSET -3.136600 1.374050 -0.404650
						CHANNELS 3 Zrotation Yrotation Xrotation
						JOINT RightForeArm
						{
							OFFSET -5.241900 -0.000000 -0.000000
							CHANNELS 3 Zrotation Yrotation Xrotation
							JOINT RightHand
							{
								OFFSET -3.444170 -0.000000 -0.000000
								CHANNELS 3 Zrotation Yrotation Xrotation
								JOINT RightFingerBase
								{
									OFFSET 0.000000 0.000000 0.000000
									CHANNELS 3 Zrotation Yrotation Xrotation
									JOINT RightHandIndex1
									{
										OFFSET -0.622530 -0.000000 -0.000000
										CHANNELS 3 Zrotation Yrotation Xrotation
										End Site
										{
											OFFSET 0.000000 0.000000 0.000000
										}
									}
								}
								JOINT RThumb
								{
									OFFSET 0.000000 0.000000 0.000000
									CHANNELS 3 Zrotation Yrotation Xrotation
									End Site
									{
										OFFSET 0.000000 0.000000 0.000000
									}
								}
							}
						}
					}
				}
			}
		}
	}
}
MOTION
Frames: 5
Frame Time: 0.008333
40.166470 17.351513 4.534498 -174.134565 10.244164 -170.544714 21.417145 3.333272 -3.282863 -38.174733 -18.549729 -3.975996 -10.935087 8.962013 18.966455 1.502985 -3.579028 -20.174399 8.475200 -16.457900 -54.257000 -24.303702 -3.595674 -4.374661 50.417432 19.860136 12.959266 14.320959 4.672754 -8.181026 -2.293516 -15.315965 -24.866422 -2.239800 9.348800 -26.892500 7.117913 1.451138 9.380068 0.191815 3.782365 -5.074488 -5.623225 1.150932 -14.704148 3.414590 1.096993 -20.167089 0.327810 3.543112 19.659275 -1.729400 2.779300 14.497400 8.725514 -7.320833 1.139643 -83.485654 17.837167 14.607232 14.612719 -26.747169 -4.804882 1.162839 2.884903 4.435126 38.326558 28.174224 17.782000 -7.125000 0.000000 0.000000 9.524200 59.851900 3.471500 -9.864724 7.034567 2.258656 83.358850 -17.828022 40.319448 -25.202684 39.784136 -7.232048 -0.081880 -3.454217 -14.926311 -29.657794 -18.999612 8.250000 7.125000 0.000000 0.000000 -1.122700 -47.311200 0.064000 
40.159487 17.352910 4.561573 -174.204025 10.292590 -170.497693 21.445837 3.289972 -3.285940 -38.160364 -18.873721 -4.228818 -10.912661 9.104821 19.181828 1.459144 -3.272497 -19.877997 8.778400 -16.663000 -55.320700 -24.273189 -3.563876 -4.349121 50.249241 20.124957 12.617687 14.318354 4.476942 -7.849766 -2.308709 -15.065185 -25.270156 -2.498200 9.834700 -28.443000 7.528559 1.454432 9.536458 0.122915 3.856215 -5.056852 -6.045087 1.103496 -14.729953 3.698942 1.251253 -20.121918 0.355750 3.680166 19.647094 -1.737900 2.870900 14.490400 8.725781 -7.323155 1.136687 -83.638454 17.716036 14.574948 14.719100 -26.875433 -4.852600 1.180100 2.883835 4.765199 38.561772 28.544959 18.152200 -7.125000 0.000000 0.000000 9.792600 60.327800 3.681700 -9.886416 7.031739 2.255481 83.476503 -17.724143 40.532035 -25.066333 39.680456 -7.142826 -0.066604 -3.449990 -14.435834 -29.067023 -18.982198 8.059400 7.125000 0.000000 0.000000 -0.596800 -47.213400 0.032600 
40.148313 17.355703 4.590475 -174.334805 10.369410 -170.542487 21.482475 3.280768 -3.303812 -38.392890 -19.048370 -4.031588 -11.025835 8.932150 18.753018 1.493203 -2.978155 -20.212797 8.706000 -16.614700 -55.067500 -24.232019 -3.545942 -4.312317 49.975722 20.397029 12.250244 14.319613 4.235712 -7.405984 -2.298184 -14.961927 -25.329207 -1.938700 8.737300 -24.976900 7.945328 1.519125 9.742745 0.028534 4.000361 -4.990702 -6.524118 1.082960 -14.630285 3.862314 1.351616 -20.161720 0.369574 3.746719 19.585535 -1.739900 2.905400 14.462300 8.708447 -7.318663 1.143491 -83.588168 17.559115 14.866566 14.928023 -27.091844 -4.925744 1.184031 2.875762 4.927160 38.837335 28.840814 18.510700 -7.125000 0.000000 0.000000 10.128000 60.740800 3.908900 -9.902249 7.007739 2.251932 83.438299 -17.577475 40.812401 -25.032265 39.672541 -7.125736 -0.075525 -3.448213 -14.343325 -29.102459 -18.936781 8.048100 7.125000 0.000000 0.000000 -0.633700 -47.169700 0.033900 
40.134667 17.356670 4.619270 -174.534576 10.471965 -170.645686 21.497774 3.262643 -3.337172 -38.526568 -18.827580 -4.561176 -10.897038 9.319976 19.521324 1.481397 -3.220758 -20.076739 8.702000 -16.612100 -55.053600 -24.198979 -3.525668 -4.283470 49.680070 20.647490 11.926954 14.327545 3.990467 -6.930667 -2.278813 -15.011922 -25.286379 -0.745000 5.513600 -15.379300 7.912940 1.504506 10.093766 0.073945 3.993189 -4.968877 -6.359697 1.085724 -14.799804 3.626259 1.382685 -20.017129 0.245492 3.872002 19.485691 -1.752100 2.909200 14.370700 8.713708 -7.347950 1.160507 -83.876321 17.721239 15.125273 15.201845 -27.412780 -5.020733 1.181918 2.884800 4.871523 39.032859 29.125439 18.804800 -7.125000 0.000000 0.000000 10.362200 61.104300 4.090000 -9.854687 6.993416 2.245113 82.899222 -17.592295 41.536873 -25.109194 39.652750 -7.155464 -0.089193 -3.435976 -14.716513 -29.579614 -18.872922 8.170700 7.125000 0.000000 0.000000 -1.068800 -47.179900 0.057500 
40.119733 17.357315 4.652684 -174.786022 10.499534 -170.756619 21.470831 3.264680 -3.396497 -38.571666 -18.179344 -5.268139 -10.719135 9.752910 20.406223 1.470672 -3.867791 -19.948780 8.758200 -16.649600 -55.250300 -24.102655 -3.512869 -4.243634 49.221037 20.854440 11.498836 14.305099 3.680115 -6.337043 -2.291115 -14.558058 -25.724220 -1.672400 8.147600 -23.163300 7.995919 1.513100 10.466322 0.040688 4.040274 -4.937502 -6.548999 1.067677 -14.913822 3.741628 1.524981 -19.979921 0.153623 4.044653 19.407737 -1.803100 2.977200 14.328900 8.697064 -7.356194 1.177302 -83.727422 17.816955 15.677530 15.512830 -27.722287 -5.111444 1.142280 2.890808 4.414775 39.023955 29.232833 18.877900 -7.125000 0.000000 0.000000 10.364000 61.229500 4.121500 -9.846974 6.988826 2.245741 82.864109 -17.519725 41.378394 -24.968247 39.515338 -7.097184 -0.111229 -3.422858 -14.204418 -29.468543 -18.701724 8.054900 7.125000 0.000000 0.000000 -0.991400 -46.987100 0.048600 
